<mxfile host="app.diagrams.net" modified="2023-05-10T16:03:08.641Z" agent="Mozilla/5.0 (Macintosh; Intel Mac OS X 10.15; rv:109.0) Gecko/20100101 Firefox/112.0" etag="uYAMz2sLiAfx-qVsES0p" version="21.2.9" type="device">
  <diagram name="Page-1" id="_qVOIC-qQzXSMaZPwBjb">
    <mxGraphModel dx="1224" dy="797" grid="1" gridSize="10" guides="1" tooltips="1" connect="1" arrows="1" fold="1" page="1" pageScale="1" pageWidth="850" pageHeight="1100" math="0" shadow="0">
      <root>
        <mxCell id="0" />
        <mxCell id="1" parent="0" />
        <mxCell id="nUGaBGL7-HPu7o74AodA-1" value="Grafana" style="rounded=0;whiteSpace=wrap;html=1;labelPosition=center;verticalLabelPosition=top;align=center;verticalAlign=bottom;" vertex="1" parent="1">
          <mxGeometry x="40" y="180" width="260" height="80" as="geometry" />
        </mxCell>
        <mxCell id="nUGaBGL7-HPu7o74AodA-2" value="Operator" style="rounded=0;whiteSpace=wrap;html=1;labelPosition=center;verticalLabelPosition=top;align=center;verticalAlign=bottom;" vertex="1" parent="1">
          <mxGeometry x="330" y="180" width="250" height="80" as="geometry" />
        </mxCell>
        <mxCell id="nUGaBGL7-HPu7o74AodA-3" value="Plugin Backend" style="rounded=0;whiteSpace=wrap;html=1;" vertex="1" parent="1">
          <mxGeometry x="190" y="190" width="100" height="60" as="geometry" />
        </mxCell>
        <mxCell id="nUGaBGL7-HPu7o74AodA-4" value="Plugin Frontend" style="rounded=0;whiteSpace=wrap;html=1;" vertex="1" parent="1">
          <mxGeometry x="50" y="190" width="100" height="60" as="geometry" />
        </mxCell>
        <mxCell id="nUGaBGL7-HPu7o74AodA-5" value="Kubernetes API Server" style="rounded=0;whiteSpace=wrap;html=1;" vertex="1" parent="1">
          <mxGeometry x="40" y="320" width="540" height="60" as="geometry" />
        </mxCell>
        <mxCell id="nUGaBGL7-HPu7o74AodA-7" value="&lt;div&gt;Create/Read/Update/Delete/List&lt;/div&gt;&lt;div&gt;Resources (kinds)&lt;br&gt;&lt;/div&gt;" style="endArrow=classic;html=1;rounded=0;exitX=0.5;exitY=1;exitDx=0;exitDy=0;entryX=0.369;entryY=0;entryDx=0;entryDy=0;entryPerimeter=0;" edge="1" parent="1" source="nUGaBGL7-HPu7o74AodA-3" target="nUGaBGL7-HPu7o74AodA-5">
          <mxGeometry x="0.1488" y="-20" width="50" height="50" relative="1" as="geometry">
            <mxPoint x="310" y="460" as="sourcePoint" />
            <mxPoint x="240" y="320" as="targetPoint" />
            <Array as="points" />
            <mxPoint as="offset" />
          </mxGeometry>
        </mxCell>
        <mxCell id="nUGaBGL7-HPu7o74AodA-8" value="User" style="shape=umlActor;verticalLabelPosition=bottom;verticalAlign=top;html=1;outlineConnect=0;" vertex="1" parent="1">
          <mxGeometry x="85" y="60" width="30" height="60" as="geometry" />
        </mxCell>
        <mxCell id="nUGaBGL7-HPu7o74AodA-9" value="" style="endArrow=classic;html=1;rounded=0;entryX=0.5;entryY=0;entryDx=0;entryDy=0;" edge="1" parent="1" source="nUGaBGL7-HPu7o74AodA-8" target="nUGaBGL7-HPu7o74AodA-4">
          <mxGeometry width="50" height="50" relative="1" as="geometry">
            <mxPoint x="-60" y="380" as="sourcePoint" />
            <mxPoint x="-10" y="330" as="targetPoint" />
          </mxGeometry>
        </mxCell>
        <mxCell id="nUGaBGL7-HPu7o74AodA-10" value="&lt;div&gt;Notify Create/Update/Delete events&lt;/div&gt;&lt;div&gt;Make changes&lt;br&gt;&lt;/div&gt;" style="endArrow=classic;startArrow=classic;html=1;rounded=0;entryX=0.5;entryY=1;entryDx=0;entryDy=0;exitX=0.92;exitY=-0.067;exitDx=0;exitDy=0;exitPerimeter=0;" edge="1" parent="1" source="nUGaBGL7-HPu7o74AodA-5" target="nUGaBGL7-HPu7o74AodA-16">
          <mxGeometry x="-0.1992" y="16" width="50" height="50" relative="1" as="geometry">
            <mxPoint x="410" y="300" as="sourcePoint" />
            <mxPoint x="580" y="390" as="targetPoint" />
            <Array as="points" />
            <mxPoint as="offset" />
          </mxGeometry>
        </mxCell>
        <mxCell id="nUGaBGL7-HPu7o74AodA-12" value="&lt;div&gt;Other Services&lt;/div&gt;&lt;div&gt;(or Grafana APIs)&lt;br&gt;&lt;/div&gt;" style="ellipse;shape=cloud;whiteSpace=wrap;html=1;" vertex="1" parent="1">
          <mxGeometry x="470" y="60" width="120" height="80" as="geometry" />
        </mxCell>
        <mxCell id="nUGaBGL7-HPu7o74AodA-13" value="" style="endArrow=classic;html=1;rounded=0;exitX=1;exitY=0.5;exitDx=0;exitDy=0;entryX=0;entryY=0.5;entryDx=0;entryDy=0;" edge="1" parent="1" source="nUGaBGL7-HPu7o74AodA-4" target="nUGaBGL7-HPu7o74AodA-3">
          <mxGeometry width="50" height="50" relative="1" as="geometry">
            <mxPoint x="120" y="310" as="sourcePoint" />
            <mxPoint x="170" y="260" as="targetPoint" />
          </mxGeometry>
        </mxCell>
        <mxCell id="nUGaBGL7-HPu7o74AodA-14" value="Admission Webhooks" style="rounded=0;whiteSpace=wrap;html=1;" vertex="1" parent="1">
          <mxGeometry x="340" y="190" width="70" height="60" as="geometry" />
        </mxCell>
        <mxCell id="nUGaBGL7-HPu7o74AodA-15" value="Version Resolution Webhook" style="rounded=0;whiteSpace=wrap;html=1;" vertex="1" parent="1">
          <mxGeometry x="420" y="190" width="70" height="60" as="geometry" />
        </mxCell>
        <mxCell id="nUGaBGL7-HPu7o74AodA-18" style="edgeStyle=orthogonalEdgeStyle;rounded=0;orthogonalLoop=1;jettySize=auto;html=1;exitX=0.5;exitY=0;exitDx=0;exitDy=0;entryX=0.55;entryY=0.95;entryDx=0;entryDy=0;entryPerimeter=0;" edge="1" parent="1" source="nUGaBGL7-HPu7o74AodA-16" target="nUGaBGL7-HPu7o74AodA-12">
          <mxGeometry relative="1" as="geometry" />
        </mxCell>
        <mxCell id="nUGaBGL7-HPu7o74AodA-16" value="Operator Loop" style="rounded=0;whiteSpace=wrap;html=1;" vertex="1" parent="1">
          <mxGeometry x="500" y="190" width="70" height="60" as="geometry" />
        </mxCell>
        <mxCell id="nUGaBGL7-HPu7o74AodA-17" value="&lt;div&gt;Admission control&lt;/div&gt;&lt;div&gt;for Resources (kinds)&lt;br&gt;&lt;/div&gt;" style="endArrow=classic;html=1;rounded=0;entryX=0.5;entryY=1;entryDx=0;entryDy=0;" edge="1" parent="1" target="nUGaBGL7-HPu7o74AodA-14">
          <mxGeometry width="50" height="50" relative="1" as="geometry">
            <mxPoint x="375" y="320" as="sourcePoint" />
            <mxPoint x="420" y="270" as="targetPoint" />
          </mxGeometry>
        </mxCell>
        <mxCell id="nUGaBGL7-HPu7o74AodA-20" style="edgeStyle=orthogonalEdgeStyle;rounded=0;orthogonalLoop=1;jettySize=auto;html=1;entryX=0.5;entryY=0;entryDx=0;entryDy=0;" edge="1" parent="1" source="nUGaBGL7-HPu7o74AodA-19" target="nUGaBGL7-HPu7o74AodA-5">
          <mxGeometry relative="1" as="geometry" />
        </mxCell>
        <mxCell id="nUGaBGL7-HPu7o74AodA-21" value="&lt;div&gt;Create/Read/Update/Delete/List&lt;/div&gt;&lt;div&gt;Resources (kinds)&lt;br&gt;&lt;/div&gt;" style="edgeLabel;html=1;align=center;verticalAlign=middle;resizable=0;points=[];" vertex="1" connectable="0" parent="nUGaBGL7-HPu7o74AodA-20">
          <mxGeometry x="-0.77" relative="1" as="geometry">
            <mxPoint as="offset" />
          </mxGeometry>
        </mxCell>
        <mxCell id="nUGaBGL7-HPu7o74AodA-19" value="User or Kubernetes Tooling" style="rounded=1;whiteSpace=wrap;html=1;" vertex="1" parent="1">
          <mxGeometry x="250" y="60" width="120" height="60" as="geometry" />
        </mxCell>
      </root>
    </mxGraphModel>
  </diagram>
</mxfile>
